# xmcd
#
# Track frame offsets:
#	150
#	15923
#	32294
#	48713
#	65002
#	80631
#	96203
#	112605
#	128619
#	142958
#	159521
#	175152
#	191107
#	207140
#	223404
#	239949
#	255235
#	270072
#
# Disc length: 3800 seconds
#
# Revision: 0
# Processed by: cddbd v1.5.2PL0 Copyright (c) Steve Scherf et al.
# Submitted via: EasyCDDAExtractor 16.0.6.1
#
DISCID=f10ed612
DTITLE=Καζαντζίδης Στέλιος - Σπάνιες ηχογραφήσεις 78 στροφών-Σ. Καζαντζίδης
DYEAR=2006
DGENRE=Λαϊκή
TTITLE0=Καζαντζίδης Στέλιος - Μάτωσε, μάτωσε [1955, Ι. Παπαϊωάννου-Χ. Βασιλειά
TTITLE0=δης]
TTITLE1=Καζαντζίδης Στέλιος-Στάμου Ρένα - Μάγκα μου περαστικά σου [1953, Στ. Χ
TTITLE1=ρυσίνη]
TTITLE2=Καζαντζίδης Στέλιος - Οι πυρκαϊές [1953, Οδ. Πετσάλης-Ν. Βούλγαρης]
TTITLE3=Καζαντζίδης Στέλιος-Γαβαλά Ζωή - Η φωτογραφία (Μιά μάννα κλαίει)[1952,
TTITLE3=Γ. Κλουβάτος-Χ. Κολοκοτρώνης]
TTITLE4=Καζαντζίδης Στέλιος-Στάμου Ρένα - Θ' αναστενάξουνε καρδιές [1954, Στ. 
TTITLE4=Χρυσίνης]
TTITLE5=Καζαντζίδης Στέλιος - Καταραμένο Σάββατο [1954, Χρ. Κολοκοτρώνης]
TTITLE6=Καζαντζίδης Στέλιος - Αφήστε με να κλάψω [1954, Χρ. Κολοκοτρώνης]
TTITLE7=Καζαντζίδης Στέλιος - Ο επισκέπτης [1955, Γ. Λαύκας-Αν. Αντιβάκης]
TTITLE8=Καζαντζίδης Στέλιος - Καινούριες συμφορές [1955, Μ. Χιώτης-Χ. Κολοκοτρ
TTITLE8=ώνης]
TTITLE9=Καζαντζίδης Στέλιος - Πάρε φωτιά και κάψε με [1953, Ι. Παπαϊωάννου-Χ. 
TTITLE9=Βασιλειάδης]
TTITLE10=Καζαντζίδης Στέλιος - Η μάννα μου θα κλάψει [1954, Μ. Χιώτης-Χ. Κολοκ
TTITLE10=οτρώνης]
TTITLE11=Καζαντζίδης Στέλιος - Αχάριστε κόσμε και ντουνιά [1955, Γ. Μητσάκης]
TTITLE12=Καζαντζίδης Στέλιος - Μαζί σου πώς θα ζήσω [1955, Τ. Λαβίδας]
TTITLE13=Καζαντζίδης Στέλιος - Καθένας με τον πόνο του [1955, Θ. Δερβενιώτης-Χ
TTITLE13=Κολοκοτρώνης]
TTITLE14=Καζαντζίδης Στέλιος - Η τύχη μου με δίκασε [1955, Τ. Λαβίδας]
TTITLE15=Καζαντζίδης Στέλιος - Χίλιες νύχτες όμορφες [1955, Μ. Χιώτης-Χ. Κολοκ
TTITLE15=οτρώνης]
TTITLE16=Καζαντζίδης Στέλιος-Γκρέϋ Καίτη - Αν ψάξετε τα στήθεια μου [1955, Μ. 
TTITLE16=Χιώτης-Χ. Κολοκοτρώνης]
TTITLE17=Καζαντζίδης Στέλιος - Ξεσπά η μπόρα [1952, Ι. Παπαϊωάννου-Χ. Κολοκοτρ
TTITLE17=ώνης]
EXTD=
EXTT0=
EXTT1=
EXTT2=
EXTT3=
EXTT4=
EXTT5=
EXTT6=
EXTT7=
EXTT8=
EXTT9=
EXTT10=
EXTT11=
EXTT12=
EXTT13=
EXTT14=
EXTT15=
EXTT16=
EXTT17=
PLAYORDER=
